<svg xmlns="http://www.w3.org/2000/svg" width="1024" height="1024" viewBox="0 0 1024 1024">
<g>
<path d="M 682.80 565.80 C679.84,566.91 675.41,568.08 672.96,568.40 C665.82,569.34 657.26,565.44 654.15,559.84 C652.33,556.54 651.49,554.91 650.36,554.67 C649.31,554.45 648.00,555.44 645.39,557.41 C645.22,557.54 645.04,557.68 644.86,557.82 C636.33,564.25 630.65,566.45 622.50,566.44 C612.07,566.44 605.01,562.04 600.26,552.60 L 598.30 548.70 L 595.12 553.32 C589.30,561.79 580.08,567.04 569.74,567.78 C563.65,568.22 562.36,567.96 556.53,565.09 C545.31,559.56 536.64,547.06 530.12,527.00 C523.62,506.99 521.04,490.09 521.02,467.30 C520.97,426.15 530.81,391.06 546.93,374.93 C557.91,363.94 573.99,362.73 581.31,372.34 C588.72,382.08 591.55,394.44 590.71,413.49 C589.23,446.95 572.91,483.03 550.34,502.72 L 544.50 507.82 L 547.26 518.66 C552.27,538.35 559.98,551.22 569.42,555.61 C578.03,559.62 585.25,558.28 593.10,551.22 L 598.00 546.81 L 598.00 538.88 C598.00,524.18 604.47,510.37 617.51,497.27 C627.12,487.61 636.60,482.42 646.50,481.40 C657.83,480.23 665.86,484.63 663.16,490.54 C661.75,493.63 660.28,493.63 654.40,490.50 C638.51,482.05 621.19,495.99 616.21,521.23 C614.93,527.77 614.84,530.45 615.76,535.81 C617.62,546.66 622.65,551.52 631.96,551.47 C639.57,551.42 649.34,546.77 649.81,542.97 C650.95,533.73 656.64,519.46 662.17,511.99 C664.84,508.37 667.53,507.92 666.61,511.25 C663.91,520.95 663.67,534.90 666.08,542.57 C667.22,546.23 672.38,551.46 676.32,552.94 C683.53,555.66 693.35,553.37 701.77,546.99 C704.67,544.80 707.30,543.00 707.62,543.00 C708.38,543.00 705.17,547.92 701.99,551.65 C697.40,557.01 688.26,563.76 682.80,565.80 ZM 472.51 738.65 C464.04,742.59 455.09,741.30 448.66,735.19 C437.39,724.51 440.82,706.41 455.93,696.83 C462.24,692.83 462.89,693.31 457.82,698.25 C452.79,703.15 450.38,707.72 449.00,715.00 C446.57,727.84 453.35,738.00 464.37,738.00 C468.25,738.00 469.62,737.44 472.88,734.49 C478.49,729.42 481.19,722.41 481.75,711.50 C482.13,703.94 481.71,700.27 479.07,688.55 C477.34,680.87 475.78,674.45 475.60,674.27 C475.43,674.09 472.95,675.52 470.09,677.44 C461.24,683.40 454.60,683.34 447.88,677.27 L 443.98 673.75 L 439.91 676.56 C431.64,682.30 419.75,680.61 413.67,672.83 L 411.15 669.61 L 406.51 673.88 C400.94,679.02 394.85,681.95 389.68,681.98 C385.37,682.00 382.66,680.84 378.91,677.34 L 376.32 674.93 L 371.91 677.45 C363.91,682.03 354.66,680.56 348.10,673.67 L 344.70 670.09 L 340.26 674.00 C334.36,679.19 328.32,682.00 323.05,682.00 C318.43,682.00 313.03,679.31 310.55,675.77 C309.12,673.72 309.07,673.73 305.37,676.98 C298.37,683.13 291.14,684.60 285.34,681.07 C283.60,680.01 281.88,678.21 281.52,677.07 C280.74,674.59 279.70,674.45 277.94,676.57 C275.60,679.39 269.18,682.00 264.57,682.00 C256.02,682.00 249.92,673.40 251.55,663.64 C253.03,654.78 261.84,642.31 269.50,638.25 C278.20,633.64 288.73,635.05 286.62,640.53 C286.10,641.90 285.69,641.89 282.86,640.43 C280.72,639.32 278.33,638.96 275.59,639.32 C264.06,640.83 256.03,664.47 264.55,671.80 C266.81,673.74 268.12,674.11 271.22,673.70 C276.84,672.94 279.64,670.72 280.46,666.37 C281.27,662.07 286.61,651.00 287.88,651.00 C288.35,651.00 288.51,654.11 288.24,657.92 C287.63,666.45 288.34,669.48 291.69,672.59 C294.69,675.37 300.89,675.82 305.00,673.55 C307.28,672.28 307.50,671.56 307.54,665.33 C307.59,657.05 310.02,651.10 315.99,644.62 C321.04,639.15 327.18,636.00 332.82,636.00 L 337.00 636.00 L 337.00 631.46 C337.00,623.88 338.99,607.98 341.05,599.20 C344.95,582.50 350.02,575.20 358.37,574.26 C362.40,573.81 363.23,574.08 365.86,576.71 C369.57,580.41 372.00,588.37 372.00,596.77 C372.00,612.56 362.28,644.56 353.33,658.26 C351.56,660.97 351.57,661.13 353.90,665.52 C357.64,672.56 365.98,676.51 372.12,674.15 C374.67,673.17 374.73,672.96 374.25,666.24 C373.85,660.66 374.16,658.43 375.86,654.59 C380.54,644.00 389.13,636.95 398.50,636.01 L 403.50 635.50 L 403.73 629.00 C404.39,610.58 408.55,590.90 413.64,582.19 C420.29,570.79 432.00,571.58 436.64,583.73 C438.93,589.73 438.90,602.58 436.57,613.50 C433.82,626.36 427.14,645.30 422.43,653.56 L 418.07 661.22 L 420.03 665.05 C424.15,673.13 433.15,676.86 439.94,673.30 L 443.38 671.50 L 443.12 664.24 C442.91,658.18 443.30,656.02 445.48,651.24 C447.80,646.16 456.23,636.00 458.13,636.00 C458.52,636.00 457.46,638.76 455.78,642.13 C450.38,652.92 450.82,665.55 456.79,671.52 C459.12,673.85 460.10,674.15 464.11,673.76 C466.66,673.52 470.08,672.36 471.72,671.20 C474.58,669.16 474.72,668.69 475.26,659.68 C475.90,649.02 478.39,641.92 483.06,637.44 C484.67,635.90 486.20,634.86 486.46,635.13 C486.73,635.39 485.94,637.61 484.72,640.05 C482.86,643.78 482.51,646.12 482.54,654.50 C482.57,663.11 483.12,666.37 486.50,678.00 C490.08,690.31 490.43,692.56 490.46,703.50 C490.50,714.89 490.34,715.83 487.40,722.05 C483.36,730.57 478.70,735.76 472.51,738.65 ZM 502.72 566.38 C495.11,568.96 488.33,568.50 481.19,564.94 C466.83,557.76 456.42,538.08 449.49,505.00 C446.30,489.77 445.08,461.63 446.89,445.10 C449.31,422.93 455.64,399.74 462.73,387.00 C467.71,378.05 476.40,369.69 483.01,367.50 C490.42,365.04 498.71,365.78 503.35,369.32 C507.95,372.82 513.63,384.41 514.97,393.00 C517.57,409.70 515.43,429.98 509.03,449.13 C502.03,470.09 492.84,485.30 478.60,499.46 L 469.60 508.41 L 472.35 518.96 C475.41,530.70 481.20,543.49 486.12,549.38 C489.68,553.64 497.87,557.97 502.38,557.99 C507.71,558.01 513.17,555.66 518.10,551.22 C523.89,546.02 524.60,547.62 519.48,554.32 C515.28,559.82 509.25,564.16 502.72,566.38 ZM 316.91 616.54 C313.04,618.55 311.56,618.38 308.31,615.59 C305.71,613.36 305.47,612.53 305.15,604.77 C304.95,599.73 305.46,592.88 306.44,587.67 L 308.07 578.96 L 304.83 574.23 C303.05,571.63 298.24,565.00 294.15,559.50 C275.46,534.37 258.41,506.20 249.96,486.50 C240.30,464.00 236.71,447.87 236.69,427.00 C236.68,405.54 241.45,389.25 252.27,373.75 C254.48,370.59 256.95,368.00 257.75,368.00 C258.77,368.00 258.98,368.53 258.45,369.75 C253.61,380.89 253.50,381.69 253.53,404.50 C253.56,429.11 254.96,439.29 261.41,461.68 C269.62,490.22 280.15,511.99 303.89,549.46 C308.40,556.59 312.25,562.59 312.45,562.78 C312.64,562.97 313.57,560.74 314.53,557.81 C319.60,542.20 337.02,494.56 344.99,474.50 L 354.11 451.50 L 354.99 433.00 C355.91,413.75 356.39,411.09 361.03,399.50 C368.03,382.03 368.24,381.92 369.95,394.57 C371.56,406.41 370.10,414.09 361.02,441.50 C353.90,463.00 345.72,489.07 330.06,540.17 C327.26,549.34 323.41,560.99 321.53,566.06 L 318.11 575.27 L 320.73 582.89 C325.75,597.48 324.00,612.88 316.91,616.54 ZM 736.72 726.43 C729.48,729.97 721.05,730.61 714.13,728.14 C708.86,726.26 706.72,724.49 707.34,722.50 C707.97,720.51 711.83,720.95 715.48,723.42 C721.16,727.27 725.12,727.65 730.74,724.86 C738.32,721.10 741.98,713.96 741.99,702.93 C742.00,692.44 737.28,684.53 727.05,677.91 L 724.60 676.32 L 728.26 671.85 C735.91,662.53 737.84,654.03 733.72,647.90 C730.34,642.87 725.96,642.70 721.51,647.42 C719.66,649.38 717.21,653.48 716.07,656.54 C711.17,669.63 706.44,675.03 695.30,680.24 C689.53,682.94 688.11,683.21 681.68,682.79 C673.86,682.28 669.23,680.42 664.39,675.82 L 661.27 672.87 L 655.67 676.80 C648.60,681.75 642.75,683.41 634.69,682.77 C627.90,682.22 623.06,680.23 618.79,676.24 L 616.08 673.70 L 612.10 677.29 C606.75,682.13 601.34,683.72 595.83,682.07 C587.06,679.44 583.29,672.00 584.38,659.50 C584.72,655.65 585.24,651.38 585.54,650.00 C586.03,647.74 585.57,647.30 580.63,645.41 L 575.18 643.33 L 574.53 647.65 C573.64,653.60 567.97,664.50 562.65,670.50 C558.02,675.72 555.27,676.24 558.84,671.23 C564.56,663.20 567.26,649.43 564.99,639.96 C563.77,634.89 563.82,634.57 565.97,632.82 C569.11,630.28 570.71,630.54 572.44,633.88 C574.24,637.37 575.23,637.78 585.82,639.51 C590.40,640.26 594.78,641.41 595.57,642.06 C597.40,643.58 597.37,646.25 595.39,656.32 C593.35,666.74 594.46,672.09 599.30,675.04 C603.30,677.48 605.37,677.47 610.87,674.98 C614.64,673.26 615.14,672.69 614.52,670.75 C614.12,669.51 613.57,665.67 613.28,662.21 C612.65,654.51 614.68,648.46 619.82,642.77 C625.22,636.81 630.17,634.67 638.83,634.58 C645.88,634.50 646.26,634.62 649.08,637.77 C657.44,647.11 647.38,659.87 630.25,661.64 C623.09,662.38 622.51,663.47 626.26,669.10 C631.30,676.67 643.39,678.71 654.11,673.81 L 659.68 671.26 L 659.22 663.26 C658.70,654.25 659.74,650.04 663.88,644.33 C669.69,636.32 684.50,631.62 691.89,635.44 C695.92,637.53 698.42,642.95 697.53,647.68 C696.17,654.94 684.00,662.00 672.83,662.00 C669.19,662.00 668.92,662.19 669.52,664.25 C672.10,673.20 682.97,678.61 693.20,676.02 C704.69,673.10 707.02,670.75 710.52,658.47 C712.92,650.07 717.63,641.57 722.15,637.48 C725.55,634.41 726.64,634.00 731.43,634.00 C735.81,634.00 737.44,634.50 739.96,636.62 C748.58,643.87 747.97,655.66 738.41,666.83 L 734.93 670.89 L 737.22 672.06 C741.96,674.49 748.03,681.47 750.01,686.76 C752.46,693.29 752.66,704.71 750.45,711.21 C748.32,717.45 742.98,723.38 736.72,726.43 ZM 467.64 497.17 C467.98,499.28 468.61,501.00 469.03,501.00 C470.90,501.00 482.88,486.61 486.94,479.51 C496.34,463.05 501.25,445.61 503.18,421.79 C505.41,394.31 501.15,377.99 491.75,378.00 C486.43,378.01 482.74,381.07 478.63,388.88 C467.43,410.19 462.11,462.60 467.64,497.17 ZM 542.12 493.48 C542.74,497.62 543.57,501.00 543.98,501.00 C544.38,501.00 546.94,498.64 549.66,495.75 C568.40,475.87 578.07,447.32 578.35,411.00 C578.49,393.73 577.07,386.62 572.40,381.07 C567.75,375.53 560.45,377.51 555.18,385.72 C543.46,403.99 536.88,458.24 542.12,493.48 ZM 538.00 680.92 C523.60,687.44 509.38,677.41 506.06,658.42 C501.86,634.36 511.51,598.86 526.34,583.79 C533.38,576.64 539.08,574.00 547.50,574.00 C553.79,574.00 554.10,574.12 556.01,577.25 C558.39,581.16 558.52,585.59 556.47,593.46 C553.96,603.08 549.22,610.81 540.50,619.50 C533.23,626.73 521.66,635.00 520.47,633.81 C520.21,633.55 522.42,631.66 525.39,629.62 C536.78,621.78 546.82,604.95 548.43,591.00 C549.22,584.15 547.66,580.64 543.62,580.17 C534.25,579.09 525.15,591.10 519.59,611.85 C513.21,635.71 513.96,657.85 521.55,669.44 C523.86,672.96 530.93,677.00 534.78,677.00 C541.64,677.00 545.76,669.28 543.96,659.81 C542.81,653.75 541.02,650.30 537.03,646.51 C534.41,644.01 533.06,643.51 528.94,643.51 C526.23,643.50 524.00,643.20 524.00,642.84 C524.00,642.48 526.05,641.18 528.57,639.97 C541.13,633.88 553.02,642.45 552.99,657.57 C552.97,668.04 547.45,676.64 538.00,680.92 ZM 423.81 566.48 C415.72,568.32 412.14,568.31 405.24,566.45 C389.01,562.08 379.61,546.91 381.37,527.94 C382.61,514.54 387.60,504.37 398.39,493.19 C409.59,481.60 417.21,477.99 410.47,487.47 C401.86,499.58 398.52,510.73 399.19,525.10 C399.84,539.18 404.19,547.45 413.43,552.20 C422.78,557.01 437.11,554.89 448.32,547.04 C451.49,544.82 454.32,543.00 454.60,543.00 C456.03,543.00 450.85,549.81 446.09,554.17 C438.89,560.79 431.93,564.63 423.81,566.48 ZM 363.00 448.97 C363.00,449.47 362.55,450.16 362.00,450.50 C360.41,451.48 360.79,449.69 364.07,440.82 C372.08,419.14 375.07,407.09 376.06,392.50 C376.63,384.13 377.80,375.89 378.97,372.00 C381.70,362.93 387.48,348.90 388.58,348.68 C389.82,348.43 391.79,357.35 391.90,363.79 C392.05,371.78 389.35,383.12 384.30,395.74 C381.80,401.98 379.96,407.30 380.22,407.55 C380.92,408.25 390.73,387.13 393.58,378.81 C394.95,374.79 397.15,365.42 398.47,358.00 C399.79,350.58 401.59,342.48 402.47,340.00 C404.41,334.52 416.02,314.00 417.17,314.00 C417.63,314.00 418.00,318.48 418.00,323.96 C418.00,336.80 415.41,345.19 407.03,359.52 C403.62,365.37 401.01,370.34 401.23,370.57 C401.46,370.80 404.63,366.58 408.27,361.19 C415.29,350.81 422.56,342.00 424.10,342.00 C425.81,342.00 416.82,358.39 408.41,370.59 C393.91,391.65 376.06,421.03 369.42,434.78 C365.89,442.08 363.00,448.47 363.00,448.97 ZM 203.92 737.59 C202.76,741.39 201.40,744.93 200.91,745.45 C200.36,746.02 200.00,739.01 199.99,727.95 C199.99,717.80 199.52,693.81 198.95,674.63 L 198.89 672.47 C198.06,644.57 197.85,637.44 200.86,635.62 C201.89,634.99 203.30,635.00 205.20,635.00 C205.34,635.00 205.48,635.00 205.63,635.00 L 210.21 635.00 L 209.50 644.00 C209.04,649.80 209.14,653.00 209.79,653.00 C210.33,653.00 211.04,651.99 211.35,650.75 C212.37,646.71 217.88,639.04 221.23,637.00 C225.42,634.45 234.94,634.26 238.59,636.65 C242.87,639.45 245.44,645.63 245.41,653.06 C245.40,658.64 244.87,660.57 241.88,666.06 C235.45,677.86 224.32,682.51 217.08,676.41 C215.21,674.84 214.00,672.88 214.00,671.41 C214.00,667.94 216.54,668.37 220.44,672.50 C224.47,676.78 227.69,677.00 231.20,673.25 C235.40,668.76 237.32,663.97 237.32,658.00 C237.32,648.27 232.98,643.00 224.96,643.00 C221.21,643.00 219.87,643.53 217.62,645.87 C212.54,651.18 210.94,659.06 209.91,684.00 C208.81,710.46 206.85,728.00 203.92,737.59 ZM 791.50 680.12 C780.13,685.57 766.86,683.29 759.20,674.57 C755.58,670.45 754.62,666.38 755.18,657.59 C755.72,649.03 759.57,642.70 766.92,638.29 C779.00,631.05 791.68,633.43 793.53,643.29 C795.32,652.84 783.23,661.94 768.68,661.99 C765.20,662.00 764.92,662.20 765.52,664.25 C769.05,676.50 785.63,680.32 799.58,672.08 C804.58,669.13 804.89,669.48 800.95,673.62 C799.05,675.61 794.80,678.54 791.50,680.12 ZM 712.31 615.64 C704.68,617.62 699.39,618.27 688.50,618.56 C673.28,618.97 669.50,618.38 669.50,615.63 C669.50,614.01 670.95,613.83 686.00,613.59 C699.47,613.38 704.06,612.91 711.00,611.04 C737.54,603.89 759.23,588.80 778.19,564.29 C791.28,547.37 799.07,542.00 810.51,542.00 C823.99,542.00 833.00,550.92 833.00,564.27 C833.00,571.12 829.15,579.15 824.27,582.46 C818.53,586.36 815.34,583.22 820.75,579.00 C825.43,575.34 827.99,570.11 827.99,564.20 C828.00,558.17 826.53,554.79 822.06,550.53 C819.35,547.96 818.03,547.51 812.13,547.18 C801.10,546.55 794.52,551.05 781.20,568.30 C762.03,593.13 739.62,608.53 712.31,615.64 ZM 349.60 653.32 C349.96,654.87 350.62,655.77 351.07,655.32 C352.81,653.55 358.41,637.94 361.22,627.01 C365.14,611.78 366.20,590.54 363.32,585.00 C361.19,580.91 357.32,579.86 354.80,582.70 C350.23,587.83 347.42,610.67 348.35,635.00 C348.68,643.53 349.24,651.77 349.60,653.32 ZM 416.33 654.50 C417.12,656.42 417.21,656.40 418.48,654.00 C421.13,648.99 426.92,630.93 429.12,620.84 C432.07,607.27 432.37,589.10 429.72,584.25 C428.34,581.72 427.30,581.00 424.99,581.00 C422.59,581.00 421.69,581.69 420.14,584.75 C416.27,592.36 415.50,599.32 415.50,626.50 C415.50,640.80 415.87,653.40 416.33,654.50 ZM 698.68 590.50 C686.52,592.48 673.66,592.49 672.04,590.54 C669.77,587.81 671.98,587.00 681.65,587.00 C693.02,587.00 708.12,584.13 719.13,579.89 C739.48,572.04 757.28,554.24 759.57,539.45 C760.90,530.83 754.91,524.01 746.00,524.01 C739.59,524.01 735.63,526.74 733.44,532.67 C730.95,539.42 729.92,540.62 728.42,538.56 C726.90,536.48 728.29,529.81 731.05,525.94 C733.77,522.11 740.64,519.00 746.36,519.00 C752.63,519.00 758.33,522.04 761.75,527.20 C764.04,530.66 764.49,532.39 764.43,537.59 C764.32,547.06 759.87,555.29 749.07,566.00 C735.61,579.35 719.67,587.10 698.68,590.50 ZM 455.50 334.87 C446.33,339.61 445.85,339.71 450.00,336.08 C451.92,334.39 458.29,330.54 464.14,327.52 C469.99,324.50 477.19,320.44 480.14,318.50 C492.78,310.16 503.59,308.71 528.94,311.92 C537.99,313.06 547.66,314.01 550.44,314.02 C554.08,314.03 555.08,314.30 554.00,315.00 C553.17,315.53 546.88,315.98 540.01,315.98 C527.80,316.00 527.21,316.10 514.31,320.55 C502.32,324.68 499.99,325.15 488.80,325.69 C475.24,326.34 468.30,328.25 455.50,334.87 ZM 389.19 671.97 C391.01,673.08 393.85,673.99 395.50,673.99 C398.57,673.98 408.29,669.96 409.34,668.26 C409.66,667.74 409.09,665.10 408.07,662.41 C407.05,659.71 405.65,653.90 404.96,649.50 C403.39,639.40 402.80,638.65 397.08,639.29 C393.45,639.70 391.85,640.58 388.87,643.77 C380.88,652.34 381.04,667.01 389.19,671.97 ZM 323.20 672.33 C325.01,673.22 327.40,673.96 328.50,673.97 C332.15,674.00 337.96,671.94 340.59,669.68 L 343.17 667.45 L 341.04 661.12 C339.86,657.63 338.63,651.87 338.30,648.31 C337.61,640.92 336.22,639.00 331.58,639.00 C323.70,639.00 316.80,648.23 316.80,658.79 C316.80,665.99 318.76,670.14 323.20,672.33 ZM 417.34 381.36 C410.28,386.13 402.59,391.67 400.25,393.65 C397.91,395.64 396.00,396.97 396.00,396.62 C396.00,395.29 407.53,377.26 412.06,371.50 C417.58,364.47 423.91,358.96 433.55,352.74 C439.99,348.59 450.26,343.00 451.45,343.00 C452.55,343.00 441.79,358.88 436.15,365.58 C431.71,370.86 426.90,374.89 417.34,381.36 ZM 648.99 362.25 C649.00,363.33 648.62,363.23 636.50,359.07 C622.02,354.11 616.45,351.18 609.62,344.94 C604.02,339.82 594.33,327.99 595.76,328.01 C596.17,328.02 600.81,329.10 606.07,330.41 C622.76,334.56 634.33,342.00 643.89,354.72 C646.69,358.45 648.99,361.84 648.99,362.25 ZM 602.47 346.25 C605.86,350.85 605.39,350.90 592.50,347.42 C575.97,342.96 560.97,333.79 553.85,323.79 L 551.72 320.80 L 559.61 321.53 C577.92,323.21 591.04,330.78 602.47,346.25 ZM 559.43 309.86 C554.49,311.16 544.59,311.91 540.00,311.34 C534.12,310.61 520.67,308.00 520.16,307.49 C519.30,306.63 534.71,300.05 541.17,298.52 C548.82,296.72 567.85,296.60 576.97,298.30 L 583.44 299.51 L 573.41 304.16 C567.89,306.73 561.60,309.29 559.43,309.86 ZM 619.71 316.61 C608.37,320.29 592.19,320.84 580.00,317.95 C570.83,315.78 567.13,315.09 567.10,314.23 C567.07,313.73 568.35,313.16 570.54,312.18 C571.17,311.90 571.88,311.59 572.65,311.23 C582.19,306.83 593.18,305.32 604.77,306.80 C615.11,308.13 629.20,311.87 628.45,313.08 C628.16,313.55 624.23,315.14 619.71,316.61 ZM 692.50 604.96 C686.45,605.53 681.05,605.93 680.50,605.85 C679.95,605.77 677.47,605.43 675.00,605.10 C671.47,604.63 670.50,604.09 670.50,602.61 C670.50,600.88 671.48,600.70 682.00,600.47 C715.82,599.75 742.92,587.40 762.63,563.75 C768.09,557.20 770.18,555.87 771.54,558.06 C773.07,560.55 761.61,573.67 750.50,582.15 C731.65,596.52 715.83,602.74 692.50,604.96 ZM 568.26 347.41 C567.55,348.12 564.83,348.01 555.29,346.90 C539.01,345.01 527.69,340.83 519.52,333.72 L 515.54 330.26 L 522.97 329.01 C532.16,327.45 542.44,328.67 550.16,332.23 C555.52,334.70 569.36,346.31 568.26,347.41 ZM 518.00 303.04 C512.07,304.63 495.00,306.82 495.00,306.00 C495.00,305.65 496.57,303.53 498.49,301.29 C503.22,295.75 511.89,290.18 520.03,287.42 C526.29,285.31 545.57,282.35 547.94,283.15 C549.34,283.62 534.89,294.95 528.00,298.78 C524.97,300.47 520.47,302.38 518.00,303.04 ZM 518.25 352.80 C502.58,356.88 490.73,356.24 480.07,350.72 C476.53,348.89 473.46,346.88 473.25,346.25 C472.14,342.92 494.67,339.89 505.20,341.96 C511.59,343.21 526.00,348.85 526.00,350.10 C526.00,350.47 522.51,351.69 518.25,352.80 ZM 432.15 331.34 C428.18,333.90 424.74,336.00 424.50,336.00 C423.49,336.00 430.99,319.86 434.37,314.76 C439.54,306.97 459.00,288.79 459.00,291.74 C459.00,292.23 457.66,296.59 456.02,301.45 C451.05,316.13 446.14,322.28 432.15,331.34 ZM 483.67 302.55 C476.59,305.79 462.00,309.93 462.00,308.70 C462.00,307.32 469.75,298.03 474.00,294.32 C475.92,292.64 479.75,289.89 482.50,288.22 C487.89,284.94 505.69,278.36 506.64,279.30 C507.47,280.14 499.06,290.77 493.56,295.84 C490.97,298.23 486.52,301.25 483.67,302.55 ZM 462.00 370.40 C456.22,372.42 439.94,373.59 436.73,372.22 C435.25,371.58 435.89,370.68 440.70,366.64 C448.06,360.45 452.11,358.43 460.03,357.00 C466.47,355.83 481.55,356.47 482.47,357.95 C483.18,359.11 468.14,368.25 462.00,370.40 ZM 382.29 431.69 C377.75,435.24 372.91,439.57 371.53,441.32 C367.67,446.22 368.48,443.59 374.97,430.21 C383.84,411.93 391.41,404.68 403.77,402.59 C406.89,402.07 406.99,402.15 405.87,404.24 C399.78,415.63 393.49,422.95 382.29,431.69 ZM 413.20 398.89 C407.67,400.05 399.00,400.39 399.00,399.46 C399.00,398.52 403.27,394.45 409.49,389.47 C418.20,382.49 424.51,379.90 434.30,379.29 L 442.50 378.77 L 436.07 385.34 C428.94,392.63 421.21,397.22 413.20,398.89 ZM 408.00 462.15 C403.55,465.40 399.77,465.52 396.18,462.50 C392.47,459.37 391.96,454.99 394.66,449.31 C400.07,437.91 417.77,438.74 415.60,450.30 C414.84,454.40 411.51,459.58 408.00,462.15 ZM 489.79 339.22 C484.68,339.76 478.81,340.78 476.75,341.49 C472.01,343.10 472.00,342.08 476.70,337.96 C484.36,331.23 497.12,326.98 514.00,325.52 L 521.50 324.87 L 515.00 329.09 C503.10,336.82 499.73,338.17 489.79,339.22 ZM 623.48 658.96 C625.16,661.68 635.19,658.12 638.80,653.52 C643.86,647.10 642.13,639.00 635.70,639.00 C631.53,639.00 628.45,641.18 626.11,645.82 C624.00,649.98 622.51,657.40 623.48,658.96 ZM 765.01 656.88 C765.00,660.18 765.09,660.25 768.45,659.70 C777.56,658.22 782.99,652.90 783.00,645.45 C783.00,640.44 781.64,639.00 776.90,639.00 C773.94,639.00 772.61,639.69 770.16,642.47 C766.89,646.20 765.01,651.44 765.01,656.88 ZM 669.01 656.88 C669.00,660.18 669.09,660.25 672.45,659.70 C681.20,658.28 686.99,652.90 687.00,646.18 C687.00,640.84 685.48,639.00 681.07,639.00 C677.91,639.00 676.65,639.64 674.16,642.47 C670.89,646.20 669.01,651.44 669.01,656.88 ZM 481.39 313.31 C475.90,318.05 469.91,321.92 461.71,326.02 L 449.92 331.91 L 452.18 327.89 C457.17,319.02 468.18,311.04 480.30,307.52 C489.86,304.74 490.07,305.82 481.39,313.31 ZM 780.83 547.01 C778.51,550.31 776.01,553.00 775.27,553.00 C767.76,553.00 783.21,533.98 795.72,527.82 C802.98,524.24 815.69,522.67 818.50,525.00 C820.93,527.02 817.45,528.93 811.26,528.97 C800.60,529.03 788.41,536.26 780.83,547.01 ZM 428.87 350.57 C425.22,353.01 421.98,355.00 421.67,355.00 C420.67,355.00 428.06,342.63 431.76,338.12 C435.09,334.05 451.63,320.09 453.19,320.03 C454.60,319.97 443.59,337.64 439.61,341.82 C437.35,344.20 432.51,348.13 428.87,350.57 ZM 456.00 352.23 C451.88,355.01 447.49,358.19 446.25,359.31 C442.59,362.62 443.66,360.21 449.08,352.89 C457.40,341.67 468.03,333.45 478.00,330.53 C481.97,329.36 464.79,346.31 456.00,352.23 ZM 818.90 573.40 C815.91,577.20 813.48,578.28 811.99,576.49 C811.00,575.29 811.35,574.37 813.89,571.48 C817.37,567.51 817.71,565.27 815.48,560.96 C813.75,557.62 810.55,556.49 805.48,557.44 C802.71,557.96 801.84,557.74 801.32,556.40 C800.44,554.10 803.53,552.00 807.79,552.00 C819.08,552.00 825.70,564.75 818.90,573.40 ZM 310.34 611.39 C312.41,614.56 312.97,614.60 316.47,611.84 C319.01,609.85 319.18,609.26 318.75,604.09 C318.50,601.02 317.27,596.25 316.02,593.50 L 313.75 588.50 L 312.37 591.75 C311.61,593.54 310.46,598.10 309.81,601.89 C308.77,607.98 308.83,609.09 310.34,611.39 ZM 586.00 323.32 C593.36,326.68 590.21,326.42 574.00,322.30 C572.97,322.04 572.00,321.79 571.07,321.56 C559.95,318.73 556.04,317.74 556.10,317.37 C556.13,317.14 557.73,317.15 560.09,317.10 C566.64,316.98 578.22,319.76 586.00,323.32 Z" fill="rgb(134,113,94)"/>
<path d="M 0.00 512.00 L 0.00 0.00 L 512.00 0.00 L 1024.00 0.00 L 1024.00 512.00 L 1024.00 1024.00 L 512.00 1024.00 L 0.00 1024.00 L 0.00 512.00 ZM 203.92 737.59 C206.85,728.00 208.81,710.46 209.91,684.00 C210.94,659.06 212.54,651.18 217.62,645.87 C219.87,643.53 221.21,643.00 224.96,643.00 C232.98,643.00 237.32,648.27 237.32,658.00 C237.32,663.97 235.40,668.76 231.20,673.25 C227.69,677.00 224.47,676.78 220.44,672.50 C216.54,668.37 214.00,667.94 214.00,671.41 C214.00,672.88 215.21,674.84 217.08,676.41 C224.32,682.51 235.45,677.86 241.88,666.06 C244.87,660.57 245.40,658.64 245.41,653.06 C245.44,645.63 242.87,639.45 238.59,636.65 C234.94,634.26 225.42,634.45 221.23,637.00 C217.88,639.04 212.37,646.71 211.35,650.75 C211.04,651.99 210.33,653.00 209.79,653.00 C209.14,653.00 209.04,649.80 209.50,644.00 L 210.21 635.00 L 205.63 635.00 C197.64,635.00 197.76,634.25 198.95,674.63 C199.52,693.81 199.99,717.80 199.99,727.95 C200.00,739.01 200.36,746.02 200.91,745.45 C201.40,744.93 202.76,741.39 203.92,737.59 ZM 472.51 738.65 C478.70,735.76 483.36,730.57 487.40,722.05 C490.34,715.83 490.50,714.89 490.46,703.50 C490.43,692.56 490.08,690.31 486.50,678.00 C483.12,666.37 482.57,663.11 482.54,654.50 C482.51,646.12 482.86,643.78 484.72,640.05 C485.94,637.61 486.73,635.39 486.46,635.13 C486.20,634.86 484.67,635.90 483.06,637.44 C478.39,641.92 475.90,649.02 475.26,659.68 C474.72,668.69 474.58,669.16 471.72,671.20 C470.08,672.36 466.66,673.52 464.11,673.76 C460.10,674.15 459.12,673.85 456.79,671.52 C450.82,665.55 450.38,652.92 455.78,642.13 C457.46,638.76 458.52,636.00 458.13,636.00 C456.23,636.00 447.80,646.16 445.48,651.24 C443.30,656.02 442.91,658.18 443.12,664.24 L 443.38 671.50 L 439.94 673.30 C433.15,676.86 424.15,673.13 420.03,665.05 L 418.07 661.22 L 422.43 653.56 C427.14,645.30 433.82,626.36 436.57,613.50 C438.90,602.58 438.93,589.73 436.64,583.73 C432.00,571.58 420.29,570.79 413.64,582.19 C408.55,590.90 404.39,610.58 403.73,629.00 L 403.50 635.50 L 398.50 636.01 C389.13,636.95 380.54,644.00 375.86,654.59 C374.16,658.43 373.85,660.66 374.25,666.24 C374.73,672.96 374.67,673.17 372.12,674.15 C365.98,676.51 357.64,672.56 353.90,665.52 C351.57,661.13 351.56,660.97 353.33,658.26 C362.28,644.56 372.00,612.56 372.00,596.77 C372.00,588.37 369.57,580.41 365.86,576.71 C363.23,574.08 362.40,573.81 358.37,574.26 C350.02,575.20 344.95,582.50 341.05,599.20 C338.99,607.98 337.00,623.88 337.00,631.46 L 337.00 636.00 L 332.82 636.00 C327.18,636.00 321.04,639.15 315.99,644.62 C310.02,651.10 307.59,657.05 307.54,665.33 C307.50,671.56 307.28,672.28 305.00,673.55 C300.89,675.82 294.69,675.37 291.69,672.59 C288.34,669.48 287.63,666.45 288.24,657.92 C288.51,654.11 288.35,651.00 287.88,651.00 C286.61,651.00 281.27,662.07 280.46,666.37 C279.64,670.72 276.84,672.94 271.22,673.70 C268.12,674.11 266.81,673.74 264.55,671.80 C256.03,664.47 264.06,640.83 275.59,639.32 C278.33,638.96 280.72,639.32 282.86,640.43 C285.69,641.89 286.10,641.90 286.62,640.53 C288.73,635.05 278.20,633.64 269.50,638.25 C261.84,642.31 253.03,654.78 251.55,663.64 C249.92,673.40 256.02,682.00 264.57,682.00 C269.18,682.00 275.60,679.39 277.94,676.57 C279.70,674.45 280.74,674.59 281.52,677.07 C281.88,678.21 283.60,680.01 285.34,681.07 C291.14,684.60 298.37,683.13 305.37,676.98 C309.07,673.73 309.12,673.72 310.55,675.77 C313.03,679.31 318.43,682.00 323.05,682.00 C328.32,682.00 334.36,679.19 340.26,674.00 L 344.70 670.09 L 348.10 673.67 C354.66,680.56 363.91,682.03 371.91,677.45 L 376.32 674.93 L 378.91 677.34 C382.66,680.84 385.37,682.00 389.68,681.98 C394.85,681.95 400.94,679.02 406.51,673.88 L 411.15 669.61 L 413.67 672.83 C419.75,680.61 431.64,682.30 439.91,676.56 L 443.98 673.75 L 447.88 677.27 C454.60,683.34 461.24,683.40 470.09,677.44 C472.95,675.52 475.43,674.09 475.60,674.27 C475.78,674.45 477.34,680.87 479.07,688.55 C481.71,700.27 482.13,703.94 481.75,711.50 C481.19,722.41 478.49,729.42 472.88,734.49 C469.62,737.44 468.25,738.00 464.37,738.00 C453.35,738.00 446.57,727.84 449.00,715.00 C450.38,707.72 452.79,703.15 457.82,698.25 C462.89,693.31 462.24,692.83 455.93,696.83 C440.82,706.41 437.39,724.51 448.66,735.19 C455.09,741.30 464.04,742.59 472.51,738.65 ZM 736.72 726.43 C742.98,723.38 748.32,717.45 750.45,711.21 C752.66,704.71 752.46,693.29 750.01,686.76 C748.03,681.47 741.96,674.49 737.22,672.06 L 734.93 670.89 L 738.41 666.83 C747.97,655.66 748.58,643.87 739.96,636.62 C737.44,634.50 735.81,634.00 731.43,634.00 C726.64,634.00 725.55,634.41 722.15,637.48 C717.63,641.57 712.92,650.07 710.52,658.47 C707.02,670.75 704.69,673.10 693.20,676.02 C682.97,678.61 672.10,673.20 669.52,664.25 C668.92,662.19 669.19,662.00 672.83,662.00 C684.00,662.00 696.17,654.94 697.53,647.68 C698.42,642.95 695.92,637.53 691.89,635.44 C684.50,631.62 669.69,636.32 663.88,644.33 C659.74,650.04 658.70,654.25 659.22,663.26 L 659.68 671.26 L 654.11 673.81 C643.39,678.71 631.30,676.67 626.26,669.10 C622.51,663.47 623.09,662.38 630.25,661.64 C647.38,659.87 657.44,647.11 649.08,637.77 C646.26,634.62 645.88,634.50 638.83,634.58 C630.17,634.67 625.22,636.81 619.82,642.77 C614.68,648.46 612.65,654.51 613.28,662.21 C613.57,665.67 614.12,669.51 614.52,670.75 C615.14,672.69 614.64,673.26 610.87,674.98 C605.37,677.47 603.30,677.48 599.30,675.04 C594.46,672.09 593.35,666.74 595.39,656.32 C597.37,646.25 597.40,643.58 595.57,642.06 C594.78,641.41 590.40,640.26 585.82,639.51 C575.23,637.78 574.24,637.37 572.44,633.88 C570.71,630.54 569.11,630.28 565.97,632.82 C563.82,634.57 563.77,634.89 564.99,639.96 C567.26,649.43 564.56,663.20 558.84,671.23 C555.27,676.24 558.02,675.72 562.65,670.50 C567.97,664.50 573.64,653.60 574.53,647.65 L 575.18 643.33 L 580.63 645.41 C585.57,647.30 586.03,647.74 585.54,650.00 C585.24,651.38 584.72,655.65 584.38,659.50 C583.29,672.00 587.06,679.44 595.83,682.07 C601.34,683.72 606.75,682.13 612.10,677.29 L 616.08 673.70 L 618.79 676.24 C623.06,680.23 627.90,682.22 634.69,682.77 C642.75,683.41 648.60,681.75 655.67,676.80 L 661.27 672.87 L 664.39 675.82 C669.23,680.42 673.86,682.28 681.68,682.79 C688.11,683.21 689.53,682.94 695.30,680.24 C706.44,675.03 711.17,669.63 716.07,656.54 C717.21,653.48 719.66,649.38 721.51,647.42 C725.96,642.70 730.34,642.87 733.72,647.90 C737.84,654.03 735.91,662.53 728.26,671.85 L 724.60 676.32 L 727.05 677.91 C737.28,684.53 742.00,692.44 741.99,702.93 C741.98,713.96 738.32,721.10 730.74,724.86 C725.12,727.65 721.16,727.27 715.48,723.42 C711.83,720.95 707.97,720.51 707.34,722.50 C706.72,724.49 708.86,726.26 714.13,728.14 C721.05,730.61 729.48,729.97 736.72,726.43 ZM 538.00 680.92 C547.45,676.64 552.97,668.04 552.99,657.57 C553.02,642.45 541.13,633.88 528.57,639.97 C526.05,641.18 524.00,642.48 524.00,642.84 C524.00,643.20 526.23,643.50 528.94,643.51 C533.06,643.51 534.41,644.01 537.03,646.51 C541.02,650.30 542.81,653.75 543.96,659.81 C545.76,669.28 541.64,677.00 534.78,677.00 C530.93,677.00 523.86,672.96 521.55,669.44 C513.96,657.85 513.21,635.71 519.59,611.85 C525.15,591.10 534.25,579.09 543.62,580.17 C547.66,580.64 549.22,584.15 548.43,591.00 C546.82,604.95 536.78,621.78 525.39,629.62 C522.42,631.66 520.21,633.55 520.47,633.81 C521.66,635.00 533.23,626.73 540.50,619.50 C549.22,610.81 553.96,603.08 556.47,593.46 C558.52,585.59 558.39,581.16 556.01,577.25 C554.10,574.12 553.79,574.00 547.50,574.00 C539.08,574.00 533.38,576.64 526.34,583.79 C511.51,598.86 501.86,634.36 506.06,658.42 C509.38,677.41 523.60,687.44 538.00,680.92 ZM 791.50 680.12 C794.80,678.54 799.05,675.61 800.95,673.62 C804.89,669.48 804.58,669.13 799.58,672.08 C785.63,680.32 769.05,676.50 765.52,664.25 C764.92,662.20 765.20,662.00 768.68,661.99 C783.23,661.94 795.32,652.84 793.53,643.29 C791.68,633.43 779.00,631.05 766.92,638.29 C759.57,642.70 755.72,649.03 755.18,657.59 C754.62,666.38 755.58,670.45 759.20,674.57 C766.86,683.29 780.13,685.57 791.50,680.12 ZM 712.31 615.64 C739.62,608.53 762.03,593.13 781.20,568.30 C794.52,551.05 801.10,546.55 812.13,547.18 C818.03,547.51 819.35,547.96 822.06,550.53 C826.53,554.79 828.00,558.17 827.99,564.20 C827.99,570.11 825.43,575.34 820.75,579.00 C815.34,583.22 818.53,586.36 824.27,582.46 C829.15,579.15 833.00,571.12 833.00,564.27 C833.00,550.92 823.99,542.00 810.51,542.00 C799.07,542.00 791.28,547.37 778.19,564.29 C759.23,588.80 737.54,603.89 711.00,611.04 C704.06,612.91 699.47,613.38 686.00,613.59 C670.95,613.83 669.50,614.01 669.50,615.63 C669.50,618.38 673.28,618.97 688.50,618.56 C699.39,618.27 704.68,617.62 712.31,615.64 ZM 316.91 616.54 C324.00,612.88 325.75,597.48 320.73,582.89 L 318.11 575.27 L 321.53 566.06 C323.41,560.99 327.26,549.34 330.06,540.17 C345.72,489.07 353.90,463.00 361.02,441.50 C370.10,414.09 371.56,406.41 369.95,394.57 C368.24,381.92 368.03,382.03 361.03,399.50 C356.39,411.09 355.91,413.75 354.99,433.00 L 354.11 451.50 L 344.99 474.50 C337.02,494.56 319.60,542.20 314.53,557.81 C313.57,560.74 312.64,562.97 312.45,562.78 C312.25,562.59 308.40,556.59 303.89,549.46 C280.15,511.99 269.62,490.22 261.41,461.68 C254.96,439.29 253.56,429.11 253.53,404.50 C253.50,381.69 253.61,380.89 258.45,369.75 C258.98,368.53 258.77,368.00 257.75,368.00 C256.95,368.00 254.48,370.59 252.27,373.75 C241.45,389.25 236.68,405.54 236.69,427.00 C236.71,447.87 240.30,464.00 249.96,486.50 C258.41,506.20 275.46,534.37 294.15,559.50 C298.24,565.00 303.05,571.63 304.83,574.23 L 308.07 578.96 L 306.44 587.67 C305.46,592.88 304.95,599.73 305.15,604.77 C305.47,612.53 305.71,613.36 308.31,615.59 C311.56,618.38 313.04,618.55 316.91,616.54 ZM 692.50 604.96 C715.83,602.74 731.65,596.52 750.50,582.15 C761.61,573.67 773.07,560.55 771.54,558.06 C770.18,555.87 768.09,557.20 762.63,563.75 C742.92,587.40 715.82,599.75 682.00,600.47 C671.48,600.70 670.50,600.88 670.50,602.61 C670.50,604.09 671.47,604.63 675.00,605.10 C677.47,605.43 679.95,605.77 680.50,605.85 C681.05,605.93 686.45,605.53 692.50,604.96 ZM 698.68 590.50 C719.67,587.10 735.61,579.35 749.07,566.00 C759.87,555.29 764.32,547.06 764.43,537.59 C764.49,532.39 764.04,530.66 761.75,527.20 C758.33,522.04 752.63,519.00 746.36,519.00 C740.64,519.00 733.77,522.11 731.05,525.94 C728.29,529.81 726.90,536.48 728.42,538.56 C729.92,540.62 730.95,539.42 733.44,532.67 C735.63,526.74 739.59,524.01 746.00,524.01 C754.91,524.01 760.90,530.83 759.57,539.45 C757.28,554.24 739.48,572.04 719.13,579.89 C708.12,584.13 693.02,587.00 681.65,587.00 C671.98,587.00 669.77,587.81 672.04,590.54 C673.66,592.49 686.52,592.48 698.68,590.50 ZM 818.90 573.40 C825.70,564.75 819.08,552.00 807.79,552.00 C803.53,552.00 800.44,554.10 801.32,556.40 C801.84,557.74 802.71,557.96 805.48,557.44 C810.55,556.49 813.75,557.62 815.48,560.96 C817.71,565.27 817.37,567.51 813.89,571.48 C811.35,574.37 811.00,575.29 811.99,576.49 C813.48,578.28 815.91,577.20 818.90,573.40 ZM 682.80 565.80 C688.26,563.76 697.40,557.01 701.99,551.65 C705.17,547.92 708.38,543.00 707.62,543.00 C707.30,543.00 704.67,544.80 701.77,546.99 C693.35,553.37 683.53,555.66 676.32,552.94 C672.38,551.46 667.22,546.23 666.08,542.57 C663.67,534.90 663.91,520.95 666.61,511.25 C667.53,507.92 664.84,508.37 662.17,511.99 C656.64,519.46 650.95,533.73 649.81,542.97 C649.34,546.77 639.57,551.42 631.96,551.47 C622.65,551.52 617.62,546.66 615.76,535.81 C614.84,530.45 614.93,527.77 616.21,521.23 C621.19,495.99 638.51,482.05 654.40,490.50 C660.28,493.63 661.75,493.63 663.16,490.54 C665.86,484.63 657.83,480.23 646.50,481.40 C636.60,482.42 627.12,487.61 617.51,497.27 C604.47,510.37 598.00,524.18 598.00,538.88 L 598.00 546.81 L 593.10 551.22 C585.25,558.28 578.03,559.62 569.42,555.61 C559.98,551.22 552.27,538.35 547.26,518.66 L 544.50 507.82 L 550.34 502.72 C572.91,483.03 589.23,446.95 590.71,413.49 C591.55,394.44 588.72,382.08 581.31,372.34 C573.99,362.73 557.91,363.94 546.93,374.93 C530.81,391.06 520.97,426.15 521.02,467.30 C521.04,490.09 523.62,506.99 530.12,527.00 C536.64,547.06 545.31,559.56 556.53,565.09 C562.36,567.96 563.65,568.22 569.74,567.78 C580.08,567.04 589.30,561.79 595.12,553.32 L 598.30 548.70 L 600.26 552.60 C605.01,562.04 612.07,566.44 622.50,566.44 C630.65,566.45 636.33,564.25 644.86,557.82 C650.82,553.32 650.51,553.25 654.15,559.84 C657.26,565.44 665.82,569.34 672.96,568.40 C675.41,568.08 679.84,566.91 682.80,565.80 ZM 423.81 566.48 C431.93,564.63 438.89,560.79 446.09,554.17 C450.85,549.81 456.03,543.00 454.60,543.00 C454.32,543.00 451.49,544.82 448.32,547.04 C437.11,554.89 422.78,557.01 413.43,552.20 C404.19,547.45 399.84,539.18 399.19,525.10 C398.52,510.73 401.86,499.58 410.47,487.47 C417.21,477.99 409.59,481.60 398.39,493.19 C387.60,504.37 382.61,514.54 381.37,527.94 C379.61,546.91 389.01,562.08 405.24,566.45 C412.14,568.31 415.72,568.32 423.81,566.48 ZM 502.72 566.38 C509.25,564.16 515.28,559.82 519.48,554.32 C524.60,547.62 523.89,546.02 518.10,551.22 C513.17,555.66 507.71,558.01 502.38,557.99 C497.87,557.97 489.68,553.64 486.12,549.38 C481.20,543.49 475.41,530.70 472.35,518.96 L 469.60 508.41 L 478.60 499.46 C492.84,485.30 502.03,470.09 509.03,449.13 C515.43,429.98 517.57,409.70 514.97,393.00 C513.63,384.41 507.95,372.82 503.35,369.32 C498.71,365.78 490.42,365.04 483.01,367.50 C476.40,369.69 467.71,378.05 462.73,387.00 C455.64,399.74 449.31,422.93 446.89,445.10 C445.08,461.63 446.30,489.77 449.49,505.00 C456.42,538.08 466.83,557.76 481.19,564.94 C488.33,568.50 495.11,568.96 502.72,566.38 ZM 780.83 547.01 C788.41,536.26 800.60,529.03 811.26,528.97 C817.45,528.93 820.93,527.02 818.50,525.00 C815.69,522.67 802.98,524.24 795.72,527.82 C783.21,533.98 767.76,553.00 775.27,553.00 C776.01,553.00 778.51,550.31 780.83,547.01 ZM 408.00 462.15 C411.51,459.58 414.84,454.40 415.60,450.30 C417.77,438.74 400.07,437.91 394.66,449.31 C391.96,454.99 392.47,459.37 396.18,462.50 C399.77,465.52 403.55,465.40 408.00,462.15 ZM 363.00 448.97 C363.00,448.47 365.89,442.08 369.42,434.78 C376.06,421.03 393.91,391.65 408.41,370.59 C416.82,358.39 425.81,342.00 424.10,342.00 C422.56,342.00 415.29,350.81 408.27,361.19 C404.63,366.58 401.46,370.80 401.23,370.57 C401.01,370.34 403.62,365.37 407.03,359.52 C415.41,345.19 418.00,336.80 418.00,323.96 C418.00,318.48 417.63,314.00 417.17,314.00 C416.02,314.00 404.41,334.52 402.47,340.00 C401.59,342.48 399.79,350.58 398.47,358.00 C397.15,365.42 394.95,374.79 393.58,378.81 C390.73,387.13 380.92,408.25 380.22,407.55 C379.96,407.30 381.80,401.98 384.30,395.74 C389.35,383.12 392.05,371.78 391.90,363.79 C391.79,357.35 389.82,348.43 388.58,348.68 C387.48,348.90 381.70,362.93 378.97,372.00 C377.80,375.89 376.63,384.13 376.06,392.50 C375.07,407.09 372.08,419.14 364.07,440.82 C360.79,449.69 360.41,451.48 362.00,450.50 C362.55,450.16 363.00,449.47 363.00,448.97 ZM 382.29 431.69 C393.49,422.95 399.78,415.63 405.87,404.24 C406.99,402.15 406.89,402.07 403.77,402.59 C391.41,404.68 383.84,411.93 374.97,430.21 C368.48,443.59 367.67,446.22 371.53,441.32 C372.91,439.57 377.75,435.24 382.29,431.69 ZM 413.20 398.89 C421.21,397.22 428.94,392.63 436.07,385.34 L 442.50 378.77 L 434.30 379.29 C424.51,379.90 418.20,382.49 409.49,389.47 C403.27,394.45 399.00,398.52 399.00,399.46 C399.00,400.39 407.67,400.05 413.20,398.89 ZM 417.34 381.36 C426.90,374.89 431.71,370.86 436.15,365.58 C441.79,358.88 452.55,343.00 451.45,343.00 C450.26,343.00 439.99,348.59 433.55,352.74 C423.91,358.96 417.58,364.47 412.06,371.50 C407.53,377.26 396.00,395.29 396.00,396.62 C396.00,396.97 397.91,395.64 400.25,393.65 C402.59,391.67 410.28,386.13 417.34,381.36 ZM 462.00 370.40 C468.14,368.25 483.18,359.11 482.47,357.95 C481.55,356.47 466.47,355.83 460.03,357.00 C452.11,358.43 448.06,360.45 440.70,366.64 C435.89,370.68 435.25,371.58 436.73,372.22 C439.94,373.59 456.22,372.42 462.00,370.40 ZM 648.99 362.25 C648.99,361.84 646.69,358.45 643.89,354.72 C634.33,342.00 622.76,334.56 606.07,330.41 C600.81,329.10 596.17,328.02 595.76,328.01 C594.33,327.99 604.02,339.82 609.62,344.94 C616.45,351.18 622.02,354.11 636.50,359.07 C648.62,363.23 649.00,363.33 648.99,362.25 ZM 456.00 352.23 C464.79,346.31 481.97,329.36 478.00,330.53 C468.03,333.45 457.40,341.67 449.08,352.89 C443.66,360.21 442.59,362.62 446.25,359.31 C447.49,358.19 451.88,355.01 456.00,352.23 ZM 518.25 352.80 C522.51,351.69 526.00,350.47 526.00,350.10 C526.00,348.85 511.59,343.21 505.20,341.96 C494.67,339.89 472.14,342.92 473.25,346.25 C473.46,346.88 476.53,348.89 480.07,350.72 C490.73,356.24 502.58,356.88 518.25,352.80 ZM 428.87 350.57 C432.51,348.13 437.35,344.20 439.61,341.82 C443.59,337.64 454.60,319.97 453.19,320.03 C451.63,320.09 435.09,334.05 431.76,338.12 C428.06,342.63 420.67,355.00 421.67,355.00 C421.98,355.00 425.22,353.01 428.87,350.57 ZM 602.47 346.25 C591.04,330.78 577.92,323.21 559.61,321.53 L 551.72 320.80 L 553.85 323.79 C560.97,333.79 575.97,342.96 592.50,347.42 C605.39,350.90 605.86,350.85 602.47,346.25 ZM 568.26 347.41 C569.36,346.31 555.52,334.70 550.16,332.23 C542.44,328.67 532.16,327.45 522.97,329.01 L 515.54 330.26 L 519.52 333.72 C527.69,340.83 539.01,345.01 555.29,346.90 C564.83,348.01 567.55,348.12 568.26,347.41 ZM 489.79 339.22 C499.73,338.17 503.10,336.82 515.00,329.09 L 521.50 324.87 L 514.00 325.52 C497.12,326.98 484.36,331.23 476.70,337.96 C472.00,342.08 472.01,343.10 476.75,341.49 C478.81,340.78 484.68,339.76 489.79,339.22 ZM 455.50 334.87 C468.30,328.25 475.24,326.34 488.80,325.69 C499.99,325.15 502.32,324.68 514.31,320.55 C527.21,316.10 527.80,316.00 540.01,315.98 C546.88,315.98 553.17,315.53 554.00,315.00 C555.08,314.30 554.08,314.03 550.44,314.02 C547.66,314.01 537.99,313.06 528.94,311.92 C503.59,308.71 492.78,310.16 480.14,318.50 C477.19,320.44 469.99,324.50 464.14,327.52 C458.29,330.54 451.92,334.39 450.00,336.08 C445.85,339.71 446.33,339.61 455.50,334.87 ZM 432.15 331.34 C446.14,322.28 451.05,316.13 456.02,301.45 C457.66,296.59 459.00,292.23 459.00,291.74 C459.00,288.79 439.54,306.97 434.37,314.76 C430.99,319.86 423.49,336.00 424.50,336.00 C424.74,336.00 428.18,333.90 432.15,331.34 ZM 481.39 313.31 C490.07,305.82 489.86,304.74 480.30,307.52 C468.18,311.04 457.17,319.02 452.18,327.89 L 449.92 331.91 L 461.71 326.02 C469.91,321.92 475.90,318.05 481.39,313.31 ZM 586.00 323.32 C578.22,319.76 566.64,316.98 560.09,317.10 C553.65,317.22 552.90,316.94 574.00,322.30 C590.21,326.42 593.36,326.68 586.00,323.32 ZM 619.71 316.61 C624.23,315.14 628.16,313.55 628.45,313.08 C629.20,311.87 615.11,308.13 604.77,306.80 C593.18,305.32 582.19,306.83 572.65,311.23 C564.68,314.91 563.80,314.11 580.00,317.95 C592.19,320.84 608.37,320.29 619.71,316.61 ZM 559.43 309.86 C561.60,309.29 567.89,306.73 573.41,304.16 L 583.44 299.51 L 576.97 298.30 C567.85,296.60 548.82,296.72 541.17,298.52 C534.71,300.05 519.30,306.63 520.16,307.49 C520.67,308.00 534.12,310.61 540.00,311.34 C544.59,311.91 554.49,311.16 559.43,309.86 ZM 483.67 302.55 C486.52,301.25 490.97,298.23 493.56,295.84 C499.06,290.77 507.47,280.14 506.64,279.30 C505.69,278.36 487.89,284.94 482.50,288.22 C479.75,289.89 475.92,292.64 474.00,294.32 C469.75,298.03 462.00,307.32 462.00,308.70 C462.00,309.93 476.59,305.79 483.67,302.55 ZM 518.00 303.04 C520.47,302.38 524.97,300.47 528.00,298.78 C534.89,294.95 549.34,283.62 547.94,283.15 C545.57,282.35 526.29,285.31 520.03,287.42 C511.89,290.18 503.22,295.75 498.49,301.29 C496.57,303.53 495.00,305.65 495.00,306.00 C495.00,306.82 512.07,304.63 518.00,303.04 ZM 323.20 672.33 C318.76,670.14 316.80,665.99 316.80,658.79 C316.80,648.23 323.70,639.00 331.58,639.00 C336.22,639.00 337.61,640.92 338.30,648.31 C338.63,651.87 339.86,657.63 341.04,661.12 L 343.17 667.45 L 340.59 669.68 C337.96,671.94 332.15,674.00 328.50,673.97 C327.40,673.96 325.01,673.22 323.20,672.33 ZM 389.19 671.97 C381.04,667.01 380.88,652.34 388.87,643.77 C391.85,640.58 393.45,639.70 397.08,639.29 C402.80,638.65 403.39,639.40 404.96,649.50 C405.65,653.90 407.05,659.71 408.07,662.41 C409.09,665.10 409.66,667.74 409.34,668.26 C408.29,669.96 398.57,673.98 395.50,673.99 C393.85,673.99 391.01,673.08 389.19,671.97 ZM 349.60 653.32 C349.24,651.77 348.68,643.53 348.35,635.00 C347.42,610.67 350.23,587.83 354.80,582.70 C357.32,579.86 361.19,580.91 363.32,585.00 C366.20,590.54 365.14,611.78 361.22,627.01 C358.41,637.94 352.81,653.55 351.07,655.32 C350.62,655.77 349.96,654.87 349.60,653.32 ZM 416.33 654.50 C415.87,653.40 415.50,640.80 415.50,626.50 C415.50,599.32 416.27,592.36 420.14,584.75 C421.69,581.69 422.59,581.00 424.99,581.00 C427.30,581.00 428.34,581.72 429.72,584.25 C432.37,589.10 432.07,607.27 429.12,620.84 C426.92,630.93 421.13,648.99 418.48,654.00 C417.21,656.40 417.12,656.42 416.33,654.50 ZM 623.48 658.96 C622.51,657.40 624.00,649.98 626.11,645.82 C628.45,641.18 631.53,639.00 635.70,639.00 C642.13,639.00 643.86,647.10 638.80,653.52 C635.19,658.12 625.16,661.68 623.48,658.96 ZM 669.01 656.88 C669.01,651.44 670.89,646.20 674.16,642.47 C676.65,639.64 677.91,639.00 681.07,639.00 C685.48,639.00 687.00,640.84 687.00,646.18 C686.99,652.90 681.20,658.28 672.45,659.70 C669.09,660.25 669.00,660.18 669.01,656.88 ZM 765.01 656.88 C765.01,651.44 766.89,646.20 770.16,642.47 C772.61,639.69 773.94,639.00 776.90,639.00 C781.64,639.00 783.00,640.44 783.00,645.45 C782.99,652.90 777.56,658.22 768.45,659.70 C765.09,660.25 765.00,660.18 765.01,656.88 ZM 310.34 611.39 C308.83,609.09 308.77,607.98 309.81,601.89 C310.46,598.10 311.61,593.54 312.37,591.75 L 313.75 588.50 L 316.02 593.50 C317.27,596.25 318.50,601.02 318.75,604.09 C319.18,609.26 319.01,609.85 316.47,611.84 C312.97,614.60 312.41,614.56 310.34,611.39 ZM 542.12 493.48 C536.88,458.24 543.46,403.99 555.18,385.72 C560.45,377.51 567.75,375.53 572.40,381.07 C577.07,386.62 578.49,393.73 578.35,411.00 C578.07,447.32 568.40,475.87 549.66,495.75 C546.94,498.64 544.38,501.00 543.98,501.00 C543.57,501.00 542.74,497.62 542.12,493.48 ZM 467.64 497.17 C462.11,462.60 467.43,410.19 478.63,388.88 C482.74,381.07 486.43,378.01 491.75,378.00 C501.15,377.99 505.41,394.31 503.18,421.79 C501.25,445.61 496.34,463.05 486.94,479.51 C482.88,486.61 470.90,501.00 469.03,501.00 C468.61,501.00 467.98,499.28 467.64,497.17 Z" fill="rgb(254,254,254)"/>
</g>
</svg>